<svg xmlns="http://www.w3.org/2000/svg" viewBox="0 0 498.04 1001.35"><g id="Layer_2" data-name="Layer 2"><g id="Layer_1-2" data-name="Layer 1"><path d="M81.17,1001.35H41.6c-1.06-13.13-2.06-25.58-3.15-39L0,959.88V623.76l37.62-3.21V543.13L4.55,539.39V209.28l33.32-2.67V126.17L4.64,123.35V0H43.73V79.26L81.17,82.2Z"/><path d="M493.15,123.7l-30.9,2.14v80l30.81,3.3V539.47l-29.51,3.86v76.41L498,623.47v336l-36.93,3.16c-.9,12.78-1.72,24.38-2.67,37.91H418.16V82.73L454.68,79V.05h38.47Z"/><path d="M208.66,375.57h81V913.69h-81Z"/></g></g></svg>